<svg width="75" height="32" viewBox="0 0 75 32" fill="none" xmlns="http://www.w3.org/2000/svg">
<path d="M9.88449 14.2765L7.64554 13.2144H24.6177C25.3131 13.2144 25.9415 12.7981 26.2146 12.1566L27.6449 8.79557L11.161 8.79369C8.38709 8.79369 5.87941 10.4486 4.78201 13.0041L0.28111 23.6096C-0.693724 25.9073 0.986572 28.4578 3.47622 28.4578H18.1304C18.826 28.4578 19.4543 28.0415 19.7274 27.4L21.1843 23.9772H5.76058L9.88449 14.2771V14.2765Z" fill="#e38817"/>
<path d="M57.1593 8.79433C54.3711 8.79433 51.8535 10.4667 50.7655 13.0422L49.52 15.9889C48.5477 18.286 50.2286 20.8333 52.7163 20.8333H64.4131L63.075 23.9778H47.2754C46.5811 23.9778 45.9541 24.3922 45.6803 25.0319L44.2122 28.4584H62.0535C64.8356 28.4584 67.3487 26.7935 68.4406 24.2269L69.7482 21.1534C70.7261 18.8557 69.0452 16.3028 66.5549 16.3028H54.8694L55.7273 14.2784L53.5437 13.2156H71.9778C72.6745 13.2156 73.3035 12.7982 73.576 12.1554L75 8.79494H57.16L57.1593 8.79433Z" fill="#e38817"/>
<path d="M51.9774 4.31307C51.9618 4.31307 51.9488 4.29997 51.9488 4.28437C51.9501 4.17578 51.9531 3.79138 51.9538 3.71899C51.9538 3.61914 51.8841 3.53864 51.797 3.53864C51.7466 3.53864 51.7017 3.5661 51.6726 3.60854C51.6576 3.62976 51.4791 3.89122 51.3691 4.05161C51.3628 4.06034 51.3534 4.06533 51.3428 4.06533H42.6446C42.6105 4.06533 42.5825 4.03787 42.5818 4.00355L42.5644 3.76767C42.5638 3.72773 42.5998 3.69653 42.639 3.70401L43.0838 3.74645C43.1224 3.74957 43.1572 3.72461 43.1665 3.68717L43.4907 2.36858C43.4976 2.338 43.4807 2.30679 43.4516 2.29619L43.1504 2.18324C43.1331 2.17637 43.1199 2.16202 43.1155 2.14391C43.0608 1.91427 42.6155 0.379133 40.4685 0.0359119C39.4239 -0.130707 38.7398 0.31673 38.3746 0.673679C38.2122 0.832186 38.0784 1.01753 37.9738 1.21971L37.8457 1.50303C37.8346 1.52487 37.7847 1.7907 37.7847 1.81504L37.8526 3.12366C37.8526 3.16859 37.8737 3.2104 37.9086 3.23786L38.3796 3.44192L38.1195 3.87438C38.1108 3.90621 38.0821 3.92804 38.0491 3.92804C38.0491 3.92804 37.4955 3.94239 37.2224 3.95362C36.7104 3.97423 35.5701 4.60138 34.7297 6.40485C33.904 8.17589 33.7685 8.47104 33.7685 8.47104C33.7511 8.50474 33.7156 8.52596 33.6776 8.52409L32.9107 8.52659C32.8634 8.52659 32.813 8.56465 32.793 8.60771L31.6004 11.9981C31.5806 12.0412 31.5924 12.1061 31.6235 12.1423L32.4559 12.6646C32.4789 12.6839 32.4888 12.7145 32.4819 12.7432L32.0472 14.0319C32.0416 14.0606 32.031 14.0886 32.016 14.1142L31.4393 14.6241C31.4244 14.6372 31.4107 14.6534 31.4026 14.6715C31.3983 14.6815 31.3946 14.6921 31.3914 14.7027L30.5976 16.7439C30.5871 16.7801 30.5541 16.8045 30.5168 16.8045L30.0713 16.8069C29.9593 16.8069 29.8661 16.8937 29.8561 17.0054L29.5898 20.0564C29.5849 20.11 29.578 20.1637 29.5687 20.2173L29.3585 21.428C29.3503 21.4561 29.3348 21.481 29.3142 21.5017L28.5728 22.0701C28.233 22.3959 27.7777 22.9905 27.5549 23.4055L25.0853 28.6369C25.0255 28.7479 24.9776 28.9396 24.9806 29.0663L25.1561 29.3801C25.1586 29.4925 25.1137 29.988 25.0622 30.0877L24.2348 31.5393C24.2162 31.5749 24.2149 31.6167 24.2311 31.6534L24.2722 31.7476L24.3959 31.9954L26.9073 31.9993C27.0629 32.0135 27.2351 31.8133 27.2401 31.5986L27.3765 29.87L27.3409 29.6098L32.1293 23.9671C32.2544 23.8143 32.4241 23.5447 32.5093 23.3663L34.7912 18.314C34.818 18.2585 34.8658 18.216 34.9244 18.1966L35.0686 18.1499C35.1563 18.1212 35.2523 18.1493 35.3113 18.2204C35.5111 18.4614 35.9807 19.2619 36.2096 19.5958C36.3987 19.8729 37.3375 21.2363 37.7474 21.6858C37.8607 21.8092 38.2096 21.9497 38.3659 22.0452C38.4169 22.0764 38.4336 22.1425 38.4044 22.1944L37.037 24.6055L36.4329 27.453C36.4119 27.5193 36.3956 27.5878 36.3856 27.6565L35.8389 29.634C35.8426 29.8837 35.6516 30.0148 35.6361 30.3093L35.437 31.7546C35.4344 31.7989 35.4699 31.8364 35.5141 31.8364L38.8927 31.8551H38.8952C38.8996 31.8551 39.1334 31.8519 39.2715 31.8462C39.2978 31.8451 39.3425 31.8407 39.3718 31.837C39.8221 31.7795 40.1302 31.7178 40.3397 31.6466C40.349 31.6436 40.3584 31.6403 40.3677 31.6366C40.5134 31.5849 40.6078 31.5274 40.6688 31.4639C40.7839 31.3433 40.917 31.1954 40.937 31.0052C40.9376 30.9976 40.9383 30.9908 40.9389 30.9832C40.9389 30.9788 40.9389 30.9738 40.9394 30.9695C40.9394 30.959 40.9394 30.9489 40.9394 30.9383C40.9394 30.9371 40.9394 30.9352 40.9394 30.9339C40.9394 30.9245 40.9383 30.9152 40.937 30.9064C40.9326 30.8685 40.9239 30.8397 40.914 30.8166C40.914 30.8166 40.914 30.8166 40.914 30.8161C40.914 30.8155 40.9133 30.8148 40.9127 30.8142C40.9096 30.8067 40.9059 30.8004 40.902 30.7941C40.8996 30.7904 40.8977 30.7867 40.8946 30.783C40.8753 30.7561 40.8567 30.7461 40.8542 30.7448C40.8449 30.7393 40.8349 30.7343 40.8243 30.7306L39.2554 30.2556C39.1547 30.2244 39.067 30.162 39.0047 30.0772L38.5835 29.4519C38.563 29.4083 38.5724 29.3557 38.6065 29.3221L39.4272 28.5102C39.4552 28.4833 39.4769 28.4504 39.4912 28.4142L42.0188 22.4302C42.137 22.0502 42.0979 21.6227 42.0188 21.1709C41.9603 20.837 41.1087 19.4023 40.8859 19.006C40.6899 18.6566 39.4682 16.5118 39.1783 16.0038C39.1453 15.9464 39.1024 15.8952 39.0483 15.8578C39.0097 15.831 38.9717 15.7967 38.9406 15.7605C38.9096 15.7243 38.8872 15.6818 38.8746 15.6357L38.7782 14.1461C38.7695 14.1136 38.7919 14.0812 38.8255 14.0787L39.2654 14.0418C39.3071 14.0381 39.3444 14.0138 39.3637 13.977L40.8866 11.1045C40.9077 11.0652 40.9065 11.0171 40.8835 10.9791L40.5718 10.5915C40.5507 10.556 40.5501 10.511 40.5705 10.4748L41.0371 9.96874C41.0564 9.9338 41.1 9.92193 41.1348 9.94128L42.3753 10.6433C42.4505 10.6858 42.5358 10.7107 42.6222 10.7107C42.9663 10.7082 43.533 10.5042 43.8278 10.3232C43.9056 10.2751 43.9696 10.2071 44.012 10.126L44.6205 8.69883C44.6285 8.68073 44.6553 8.68323 44.659 8.70258L44.8288 9.49635C44.84 9.54627 44.8836 9.57435 44.9334 9.56312L46.725 9.16312C46.7723 9.1525 46.8015 9.10569 46.7915 9.05828L46.3692 7.26665C46.3635 7.24231 46.3679 7.21673 46.3815 7.19551L46.5559 6.92406C46.5776 6.89036 46.5937 6.85354 46.6037 6.81547L46.8147 5.84884C46.8201 5.82387 46.842 5.80577 46.8674 5.80577L51.8237 5.81201C51.8934 5.81201 51.9475 5.75836 51.9475 5.68784V4.84288C51.9475 4.82729 51.9605 4.81418 51.9761 4.81418H53.8872C53.9208 4.81418 53.9488 4.78672 53.9488 4.75239V4.37174C53.9488 4.33804 53.9215 4.30995 53.8872 4.30995H51.9755L51.9774 4.31307Z" fill="#e38817"/>
</svg>
