<svg width="116" height="32" viewBox="0 0 116 32" fill="none" xmlns="http://www.w3.org/2000/svg">
<path d="M0 16C0 24.8 0.0213064 32 0.0506027 32C0.0945471 32 6.07499 30.9027 6.80873 30.7573L7.18958 30.6853V18.9387H11.7398V17.864C11.7398 17.2773 11.7611 15.7453 11.7904 14.4533L11.833 12.1173H7.19091V6.96533H9.87019C11.3443 6.96533 12.5468 6.952 12.5468 6.92933C12.5468 6.84933 13.1354 0.652 13.1727 0.34L13.2126 0H0.00133167V16H0ZM109.749 0.937333L103.895 1.41467V30.324L104.135 30.36C104.349 30.3973 115.684 31.2093 115.912 31.2013C115.979 31.2013 116 30.4333 116 27.6107V24.0173H111.012V18.7947H115.266V12.5547H110.864V8.41733L111.033 8.388C111.121 8.36667 111.869 8.33733 112.698 8.308C113.5 8.28876 114.303 8.25987 115.105 8.22133L116 8.17733V0.436L115.803 0.444C115.684 0.450667 112.963 0.668 109.749 0.937333ZM72.1608 1.93867C72.234 2.66533 73.0716 13.6 73.057 13.6147C73.049 13.628 71.9703 11.0093 70.6573 7.79467C69.8568 5.81385 69.0444 3.83782 68.2204 1.86667C68.1765 1.78667 66.1524 2.15733 62.8272 2.85333L62.513 2.91733V27.864H69.0434L69.0061 27.3427C68.9342 26.3707 68.6599 18.3293 68.6905 18.012C68.7131 17.728 68.9328 18.2227 71.0169 23.2C72.278 26.2267 73.3499 28.7293 73.3792 28.7733C73.4232 28.816 74.4432 28.7507 76.1744 28.6053C77.6791 28.4747 78.9109 28.3573 78.9109 28.352C78.9189 28.3453 78.8816 23.112 78.831 16.728C78.7777 10.3413 78.7351 4.31067 78.7351 3.316L78.7298 1.52533H72.1182L72.1608 1.93867ZM20.5074 1.968C16.121 2.25867 13.7067 5.22667 12.9423 11.248C12.7878 12.496 12.7226 16.7347 12.8331 18.216C13.1993 23.0187 14.5123 26.1387 16.8454 27.728C18.1011 28.576 19.9867 29.0347 21.8497 28.9253C23.971 28.8093 25.4145 28.212 26.7142 26.9293C27.7795 25.8773 28.3588 24.8893 28.9168 23.2053C29.6931 20.856 30.0447 17.344 29.8689 13.6867C29.6718 9.59333 29.0486 7.04667 27.7622 5.09467C26.5371 3.23733 24.6022 2.128 22.3411 1.98933C21.9815 1.968 21.6007 1.94667 21.4982 1.932C21.1679 1.932 20.8377 1.94267 20.5074 1.968ZM21.5421 7.67067C22.0761 8.244 22.3051 10.5307 22.3051 15.4213C22.3051 21.4427 21.9229 23.9467 21.088 23.4093C20.7271 23.1707 20.4555 22.0027 20.3236 20.064C20.2291 18.6507 20.2291 12.1707 20.3236 10.8133C20.4621 8.89733 20.7125 7.83867 21.088 7.584C21.2917 7.43733 21.3277 7.44533 21.5421 7.67067ZM30.8144 28.3733H37.5432L37.5871 27.452C37.6164 26.9373 37.675 25.2667 37.7203 23.728C37.7629 22.1907 37.8215 20.8413 37.8521 20.732C37.8881 20.58 38.2037 21.5613 39.1731 24.868C39.8762 27.2547 40.4715 29.236 40.4995 29.2653C40.5581 29.332 47.4414 28.7947 47.5146 28.7213C47.5372 28.692 46.7742 26.32 45.8194 23.4307L44.0883 18.192L44.4558 17.8733C45.6729 16.8213 46.6783 14.7893 46.9646 12.78C47.0898 11.9 47.0086 9.72533 46.8181 8.91867C46.0844 5.76267 44.1389 3.31067 41.6607 2.396C40.582 2.00267 40.6699 2.012 35.5697 1.98267L30.8157 1.95333L30.8144 28.3733ZM38.3808 8.208C38.9002 8.46133 39.3263 9.11467 39.554 10.0147C39.7085 10.6173 39.6845 12.5253 39.518 13.1347C39.2011 14.2813 38.6445 14.9493 37.8082 15.2027L37.6391 15.2467V7.98267L37.8801 8.03333C38.0053 8.05467 38.2343 8.13467 38.3808 8.208ZM47.1777 5.408V8.78133H50.9196V28.228H57.964V9.944H61.7792V3.19333L61.6181 3.164C61.4636 3.12933 47.472 2.02533 47.2736 2.032C47.2003 2.032 47.1777 2.76133 47.1777 5.408ZM80.2652 29.0973H87.528V2.75733H80.2652V29.0973ZM95.8215 3.67333C91.8465 3.884 88.5374 4.05867 88.4708 4.05867C88.3456 4.06533 88.3376 4.276 88.3376 7.476V10.8853H92.0796V29.9693H99.1986V10.0867H103.159V6.67733C103.159 4.79733 103.136 3.27467 103.106 3.27467C103.07 3.28133 99.7992 3.456 95.8215 3.67333Z" fill="#6f52f4"/>
</svg>
