<svg width="84" height="32" viewBox="0 0 84 32" fill="none" xmlns="http://www.w3.org/2000/svg">
<path d="M79.352 22.9894C77.924 22.6268 76.692 22.3199 76.692 21.1483C76.692 20.2277 77.392 19.6419 78.512 19.6419C79.548 19.5861 80.5 20.2835 80.696 21.3157L83.496 19.9766C82.74 18.1355 80.92 17.0196 78.596 17.0196C75.572 17.0196 73.472 18.8608 73.472 21.483C73.472 24.6911 75.796 25.3048 77.868 25.8349C79.324 26.1975 80.556 26.5323 80.556 27.7318C80.556 28.7361 79.744 29.3777 78.512 29.3777C77.28 29.3777 76.244 28.7082 75.964 27.7039L73.164 29.043C73.948 30.8841 75.936 32 78.4 32C81.676 32 83.776 30.1867 83.776 27.3413C83.776 24.1053 81.312 23.4916 79.352 22.9894Z" fill="#C79B3B"/>
<path d="M84 4.04761V5.52612H81.62V6.92094H83.692L83.3 8.34366H81.62V10.5475H79.996V4.04761H84Z" fill="#C79B3B"/>
<path d="M75.908 5.55402C76.916 5.55402 77.728 6.36301 77.728 7.36729C77.728 8.37156 76.916 9.18056 75.908 9.18056C74.9 9.18056 74.088 8.37156 74.088 7.36729C74.088 6.36301 74.9 5.55402 75.908 5.55402ZM75.908 10.7428C77.784 10.7428 79.296 9.20845 79.296 7.33939C79.296 5.47033 77.756 3.96392 75.88 3.96392C74.004 3.96392 72.492 5.49822 72.492 7.33939C72.492 9.23635 74.032 10.7707 75.908 10.7428Z" fill="#C79B3B"/>
<path d="M46.06 31.5816H49.084V22.0689L55.944 31.5816H59.108V17.1033H56.056V26.7555L49.28 17.1033H45.36L46.06 18.526V31.5816Z" fill="#C79B3B"/>
<path d="M69.356 26.0581C68.936 27.0902 68.096 27.8992 67.088 28.3456C66.556 28.5687 65.996 28.6803 65.408 28.6803H63.672V20.0324H65.408C65.996 20.0324 66.556 20.144 67.088 20.3672C68.124 20.7856 68.936 21.6225 69.356 22.6547C69.804 23.7705 69.804 24.9701 69.356 26.0581ZM68.348 17.6891C67.424 17.3265 66.444 17.1312 65.464 17.0754H60.508V31.5537H65.464C67.424 31.5537 69.3 30.8283 70.728 29.4893C71.4 28.8477 71.96 28.0666 72.324 27.2018C73.528 24.468 72.884 21.2878 70.728 19.2234C70.028 18.5818 69.244 18.0518 68.348 17.6891Z" fill="#C79B3B"/>
<path d="M19.376 31.5816H10.724V17.1033H19.376V19.9208H13.888V22.85H18.9L18.144 25.5838H13.888V28.764L19.376 28.7919V31.5816Z" fill="#C79B3B"/>
<path d="M39.144 19.9208H44.632V17.1033H36.008V31.5816H44.632V28.7919L39.144 28.764V25.5838H43.4L44.156 22.85H39.144V19.9208Z" fill="#C79B3B"/>
<path d="M50.12 11.4402C49.84 10.6312 49.7 9.79428 49.728 8.95739L49.784 0.0305186H52.92L52.892 8.8179C52.892 9.79428 53.116 10.5754 53.564 11.1333C54.628 12.2492 56.42 12.2771 57.512 11.1891L57.568 11.1333C58.044 10.5754 58.268 9.79428 58.268 8.8179L58.296 0.00262214H61.488L61.432 9.01318C61.432 9.85007 61.32 10.687 61.04 11.496C60.788 12.1934 60.368 12.835 59.864 13.3929C59.332 13.923 58.716 14.3414 58.016 14.5925C56.42 15.1504 54.684 15.1504 53.088 14.5646C52.388 14.2856 51.772 13.895 51.268 13.3371C50.764 12.8071 50.372 12.1655 50.12 11.4402Z" fill="#C79B3B"/>
<path d="M34.384 10.3243C33.992 9.40373 33.796 8.39946 33.796 7.42308C33.796 6.41881 34.02 5.44243 34.412 4.52185C34.804 3.62916 35.364 2.82016 36.064 2.15065C36.764 1.45324 37.604 0.923205 38.5 0.560551C39.424 0.170001 40.432 -0.0252743 41.468 0.00262214C42.84 -0.0252897 44.212 0.33738 45.416 1.00689C46.536 1.64851 47.46 2.59699 48.048 3.76864L45.192 5.10767C44.856 4.43816 44.324 3.88023 43.68 3.48968C43.008 3.09913 42.224 2.93175 41.44 2.93175C40.852 2.93175 40.236 3.04334 39.704 3.26651C39.172 3.48968 38.696 3.82444 38.304 4.24288C37.884 4.66133 37.576 5.16347 37.352 5.6935C36.876 6.83725 36.876 8.0926 37.324 9.23635C37.744 10.3243 38.612 11.217 39.676 11.6912C40.236 11.9423 40.824 12.0818 41.44 12.0539C42.336 12.0818 43.232 11.8028 43.96 11.3007C44.632 10.8264 45.108 10.1011 45.304 9.29214H40.124L41.412 6.66988H48.636C48.664 7.2278 48.636 8.42735 48.608 8.67842C48.524 9.34794 48.356 10.0175 48.104 10.6591C47.404 12.3886 46.032 13.7277 44.296 14.4251C41.44 15.5688 38.192 14.8993 36.008 12.7234C35.308 12.026 34.776 11.217 34.384 10.3243Z" fill="#C79B3B"/>
<path d="M0.728 13.0582V1.53693L0 0.0305186H3.864V11.7191H9.66L8.848 14.5646H0L0.728 13.0582Z" fill="#C79B3B"/>
<path d="M0.728 30.0751V18.5539L0 17.0475H3.864V28.7361H9.66L8.848 31.5816H0L0.728 30.0751Z" fill="#C79B3B"/>
<path d="M19.376 14.5647H10.724V0.086451H19.376V2.90399H13.888V5.83312H18.9L18.144 8.56697H13.888V11.7193L19.376 11.7472V14.5647Z" fill="#C79B3B"/>
<path d="M62.888 14.5647V0.086451H71.54V2.90399H66.052V5.83312H71.064L70.308 8.56697H66.052V11.7193L71.54 11.7472V14.5647L62.888 14.5647Z" fill="#C79B3B"/>
<path d="M27.664 4.1034L29.484 8.98528H25.76L27.664 4.1034ZM23.604 14.5646L24.696 11.747H30.52L31.64 14.5646H34.916L29.064 0.0305186H24.584L25.536 1.92748L20.384 14.5646H23.604Z" fill="#C79B3B"/>
<path d="M25.928 31.8047C26.46 31.9163 26.992 31.9721 27.552 31.9721C28.532 32 29.512 31.8047 30.436 31.4421C32.172 30.7447 33.544 29.4056 34.244 27.676C34.496 27.0344 34.664 26.3649 34.748 25.6954C34.804 25.0259 34.804 24.3564 34.776 23.659H27.552V23.6869L26.264 26.3091H31.416C31.22 27.1181 30.744 27.8434 30.072 28.3177C29.344 28.8477 28.476 29.0988 27.58 29.0709C27.3 29.0709 27.048 29.043 26.768 28.9872L26.124 28.8198C26.012 28.7919 25.928 28.7361 25.816 28.7082C24.752 28.234 23.884 27.3692 23.464 26.2533C23.016 25.1096 23.016 23.8263 23.492 22.6826C23.716 22.1525 24.052 21.6504 24.444 21.232C24.836 20.8135 25.34 20.5067 25.872 20.2835C26.432 20.0603 27.02 19.9487 27.608 19.9487C28.392 19.9208 29.176 20.1161 29.848 20.5067C30.492 20.8972 31.024 21.4551 31.36 22.1247L34.216 20.7856C33.628 19.614 32.732 18.6655 31.584 18.0239C30.38 17.3544 29.036 17.0196 27.636 17.0196C25.62 16.9917 23.688 17.7728 22.232 19.1955C21.532 19.865 20.972 20.674 20.58 21.5667C19.768 23.4079 19.768 25.528 20.552 27.3692C20.944 28.2619 21.476 29.0709 22.148 29.7683C22.764 30.382 23.492 30.8841 24.276 31.2747C24.8267 31.5218 25.3773 31.7223 25.928 31.8047Z" fill="#C79B3B"/>
</svg>
