<svg width="55" height="32" viewBox="0 0 55 32" fill="none" xmlns="http://www.w3.org/2000/svg">
<path d="M3.57634 0.113902C3.18881 0.231297 2.8997 0.391943 2.6844 0.657627C2.37684 1.02835 2.36453 1.08396 2.38914 2.18994C2.40144 2.82635 2.40144 3.95087 2.38914 4.71085C2.37684 6.07017 2.37684 6.07017 2.12463 5.98984C1.62023 5.81684 0.414571 5.89716 0.211578 6.1196C0.0393411 6.30496 0.0393411 6.30496 0.236183 6.23699C0.383814 6.19374 0.433025 6.21228 0.396117 6.30496C0.371511 6.38528 0.279242 6.44089 0.211578 6.42235C0.131611 6.41 0.0824003 6.62007 0.0824003 6.99697C0.0824003 7.33062 0.0454924 7.79402 0.0147359 8.01028C-0.0283232 8.33157 0.0147359 8.47368 0.254637 8.72701C0.531445 9.02358 0.623715 9.0483 1.44799 9.0483C2.2169 9.0483 2.35223 9.08537 2.40144 9.24602C2.46911 9.5117 2.38914 22.66 2.32147 22.8453C2.28457 22.9504 2.02621 22.9936 1.52796 22.9936C1.0297 22.9936 0.666774 23.0616 0.439176 23.1913C0.0947029 23.4014 0.0824002 23.42 0.0700976 24.322C0.0454924 26.1571 0.0947029 26.2251 1.54026 26.2251H2.50601L2.46911 28.4371C2.42605 31.5511 2.51216 31.6871 4.73894 31.8106C8.04219 31.9836 17.712 32.0516 19.2991 31.9157C19.8527 31.8724 20.3448 31.8601 20.88 31.8724C21.6243 31.8848 21.8088 31.8724 21.9441 31.7427C22.061 31.65 22.1041 31.65 22.1041 31.7427C22.1041 31.8106 22.1594 31.8724 22.2209 31.8724C22.2886 31.8724 22.3378 31.7674 22.3378 31.6314C22.3378 31.5017 22.2948 31.4337 22.2209 31.4708C22.1656 31.5079 22.1041 31.4832 22.1041 31.4152C22.1041 31.2051 22.3809 31.3472 22.5039 31.6253C22.6208 31.8786 22.6515 31.8786 25.1982 31.8786C26.6191 31.8786 28.5691 31.9157 29.5348 31.9466C32.1368 32.0516 36.2152 31.9033 36.2152 31.6932C36.2152 31.6005 36.2705 31.5326 36.3443 31.5326C36.412 31.5326 36.4489 31.6129 36.3997 31.7056C36.3566 31.8539 36.4797 31.8786 37.224 31.8786C37.7038 31.8909 40.355 31.9033 43.1231 31.9157C45.8789 31.928 48.0995 31.9033 48.0687 31.8477C48.0441 31.8044 48.1056 31.7674 48.204 31.7674C48.3209 31.7674 48.3517 31.823 48.3086 31.9033C48.1733 32.1196 51.1751 31.9404 51.6795 31.6871C52.5161 31.2731 52.5653 31.1001 52.5715 28.5977C52.5838 27.362 52.6145 26.2807 52.6637 26.1757C52.7068 26.0397 52.7991 26.015 52.9836 26.0706C53.3158 26.188 54.5645 26.1262 54.7982 26.0026C54.9459 25.91 54.9336 25.8976 54.7613 25.8853C54.6322 25.8853 54.5645 25.8296 54.6014 25.737C54.626 25.669 54.706 25.6072 54.7613 25.6196C54.909 25.6566 55.0258 23.8092 54.8967 23.5806C54.6199 23.0863 54.5768 23.0616 53.5311 23.006L52.4854 22.9504L52.4607 15.9993L52.4238 9.06066H53.445C54.3861 9.06066 54.4661 9.03594 54.7429 8.73936C54.9828 8.48604 55.032 8.35011 54.9828 8.02264C54.9459 7.80638 54.9151 7.34298 54.9151 7.02169C54.9151 6.63243 54.8721 6.42235 54.7859 6.44707C54.7183 6.45943 54.626 6.40382 54.6014 6.31732C54.5645 6.22463 54.6137 6.19992 54.7613 6.24935C54.9459 6.31731 54.9459 6.30496 54.7982 6.14431C54.6137 5.94659 53.4819 5.85391 52.9652 5.99602C52.4484 6.13195 52.4054 6.00838 52.3316 3.93234C52.2024 0.725593 51.9625 0.268369 50.3939 0.31162C49.9326 0.323978 49.502 0.299263 49.4282 0.268369C49.3051 0.157153 47.3552 0.0212215 46.371 0.0212215C45.9896 0.0335789 45.3252 0.0335789 44.8823 0.0335789C44.4456 0.0335789 42.1758 0.0582937 39.8321 0.0706511C37.5008 0.0830085 35.151 0.107723 34.6097 0.126259C34.0683 0.144795 33.404 0.16951 33.121 0.163332C28.6675 0.0953659 24.9767 0.0706511 24.7799 0.120081C24.6323 0.157153 24.5277 0.225119 24.5523 0.268369C24.5646 0.31162 24.5277 0.36105 24.46 0.373407C24.4047 0.398122 24.3431 0.336335 24.3431 0.256012C24.3431 0.150974 23.7895 0.120081 21.9933 0.120081C20.1664 0.120081 19.6558 0.157153 19.662 0.256012C19.6866 0.336335 19.6189 0.404301 19.5144 0.404301C19.4221 0.404301 19.3667 0.36105 19.3975 0.299263C19.5328 0.0891872 18.7885 0.0582937 13.5599 0.0582937C10.6565 0.0582937 7.35324 0.0335789 6.21525 0.0150428C4.70818 -0.0220294 3.98848 0.00886413 3.57634 0.113902ZM26.8959 3.23414C42.6002 3.25886 47.7981 3.22179 47.7981 3.12911C47.7981 3.02407 47.835 3.03643 47.8903 3.12911C47.9334 3.20943 48.2348 3.28975 48.5424 3.30211L49.1144 3.33918L49.1267 3.9138C49.1513 4.83443 49.299 14.1457 49.2867 14.3434C49.2498 15.3259 49.2867 22.7341 49.342 25.3168C49.3974 27.8995 49.3851 28.6348 49.2744 28.7027C49.1944 28.746 48.7577 28.7707 48.3209 28.7583C47.472 28.7213 44.3718 28.7213 32.4875 28.7336C26.3239 28.746 25.5242 28.7707 25.5796 28.919C25.6226 29.0364 25.5672 29.092 25.4196 29.092C25.272 29.092 25.2105 29.0364 25.2597 28.919C25.315 28.7707 24.5953 28.7583 19.4898 28.7583C16.2911 28.7707 12.7233 28.8016 11.5607 28.8387C10.4104 28.8819 9.47544 28.8819 9.47544 28.8263C9.47544 28.6904 9.0756 28.7336 8.92182 28.8819C8.81725 28.987 8.74959 28.9993 8.69422 28.9066C8.65117 28.814 8.09755 28.7707 7.19331 28.7583C6.41209 28.746 5.72315 28.7151 5.68009 28.678C5.62472 28.641 5.57551 28.2084 5.57551 27.6894C5.57551 26.9171 5.55091 26.7812 5.40328 26.8368C5.2864 26.88 5.23104 26.8244 5.23104 26.6761C5.23104 26.5278 5.2864 26.466 5.40328 26.5155C5.55091 26.5711 5.57551 26.0644 5.58782 22.4005C5.63088 8.61579 5.63088 8.77644 5.47094 8.72083C5.37867 8.68376 5.35407 8.64051 5.43403 8.59108C5.60627 8.48604 5.63088 7.09583 5.47094 6.583C5.39097 6.35439 5.36637 6.10106 5.42788 6.02074C5.47094 5.94041 5.52015 5.29165 5.54476 4.60582C5.55706 3.90144 5.56936 3.27122 5.56936 3.17854C5.58167 3.0735 5.64933 3.04878 5.78466 3.12293C5.88923 3.16618 15.393 3.22179 26.8959 3.23414Z" fill="#f1a900"/>
<path d="M41.9851 6.13813L39.543 6.16285L39.094 6.60153C38.7126 6.97226 38.6326 7.12054 38.5773 7.66427C38.4481 8.7579 38.4481 10.2902 38.5527 12.737C38.608 14.0407 38.6449 15.3073 38.6203 15.5606C38.5957 15.814 38.5773 17.9333 38.5773 20.2874L38.5649 24.5507L38.8418 25.0017C38.9894 25.2427 39.2785 25.5083 39.4815 25.601C39.9428 25.7987 44.5502 25.842 45.1591 25.6566C45.7189 25.4836 46.168 24.909 46.2356 24.2726C46.3525 23.1543 46.3033 14.64 46.1803 14.3187L46.0511 14.0098H44.4764C43.4122 14.0098 42.8586 14.053 42.7663 14.1457C42.674 14.2384 42.631 14.6895 42.631 15.3876V16.4936L42.9754 16.6913L43.3199 16.9014L43.3322 18.1928C43.3322 18.9095 43.3322 20.0587 43.3199 20.7755C43.3076 21.5478 43.3568 22.1471 43.4368 22.2707C43.5291 22.419 43.5414 22.5673 43.4491 22.7897C43.3322 23.0987 43.3199 23.0987 42.4649 23.0554C41.4868 23.0122 41.3084 22.938 41.4868 22.7094C41.616 22.5488 41.6714 14.4917 41.5668 10.7042L41.5114 8.85058L42.3357 8.80733C43.566 8.75172 43.5537 8.73936 43.5537 9.56731C43.5537 9.96892 43.609 10.3396 43.689 10.42C43.7936 10.525 43.7936 10.5559 43.689 10.5559C43.4368 10.5559 43.5414 10.8772 43.8182 10.939C44.2303 11.0193 45.8481 10.9513 45.965 10.8339C46.008 10.7783 46.0818 9.8886 46.1126 8.85058L46.1557 6.9599L45.8358 6.63861C45.559 6.36056 45.3191 6.26788 44.5502 6.14431C44.4764 6.1196 43.3138 6.1196 41.9851 6.13813ZM9.19863 6.36056C9.09406 6.4656 9.0633 7.12054 9.09406 8.72083C9.13097 11.3035 9.11866 11.1058 9.25399 10.8896C9.34626 10.7536 9.37087 10.7845 9.37087 11.0255C9.37087 11.1861 9.31551 11.3468 9.23554 11.3715C9.13097 11.4086 9.10021 11.9029 9.10021 13.0892C9.08791 14.5288 9.0633 14.7945 8.89107 14.9675C8.71883 15.1281 8.68192 15.3815 8.68192 16.4442C8.68192 17.1486 8.71883 17.6861 8.76189 17.6552C8.86646 17.5502 9.25399 17.9086 9.25399 18.1186C9.25399 18.199 9.21708 18.2669 9.17403 18.2669C9.11866 18.2669 9.06945 19.8487 9.04485 21.7826C9.03255 23.7165 9.06945 25.2983 9.11251 25.2983C9.16788 25.2983 9.27245 25.428 9.34011 25.5887C9.46929 25.8667 9.51235 25.8791 10.6134 25.8791C12.3112 25.8791 12.2189 26.0891 12.1882 21.8938C12.1636 20.0587 12.1451 18.5079 12.1205 18.4461C11.9913 17.9518 12.0528 17.9271 13.6829 17.9271C15.4484 17.9271 16.1127 17.7973 16.5064 17.3834L16.7709 17.093L16.8078 12.0944C16.8324 8.72701 16.7955 7.00933 16.7155 6.86104C16.4264 6.32967 16.1188 6.28642 12.6188 6.24935C10.1951 6.23081 9.28475 6.25553 9.19863 6.36056ZM13.726 9.12244C13.7383 9.23984 13.7383 10.4694 13.7506 11.8658C13.7506 13.2622 13.7875 14.3064 13.806 14.1952C13.8982 13.8491 14.0705 13.9851 14.0705 14.4114C14.0705 14.7451 14.0336 14.813 13.8859 14.7574C13.7567 14.7142 13.726 14.7451 13.769 14.8933C13.8244 15.0664 13.7567 15.0911 13.0678 15.054C12.6311 15.0293 12.2435 14.9366 12.1513 14.8563C11.9667 14.6709 11.9544 14.3373 12.1267 14.3373C12.2066 14.3373 12.2312 13.5279 12.182 11.699C12.1574 10.247 12.1574 9.02358 12.1943 8.99269C12.2374 8.95562 12.5942 8.92472 13.0001 8.92472C13.6153 8.9309 13.726 8.9618 13.726 9.12244ZM19.0161 6.32349C18.8193 6.5521 18.8869 9.11009 19.0961 9.06683C19.1637 9.05448 19.2314 9.12244 19.2314 9.21512C19.2314 9.3078 19.1637 9.37577 19.0961 9.35105C18.9915 9.3387 18.9361 9.52406 18.9115 9.93803C18.8869 10.42 18.9115 10.5374 19.0284 10.4694C19.1453 10.4014 19.1453 10.4138 19.053 10.5497C18.8685 10.7907 18.7455 23.8463 18.9177 24.6186C19.0223 25.0326 19.1453 25.255 19.4344 25.4589L19.8158 25.7555L22.8238 25.7122C26.1762 25.669 26.4161 25.6072 26.7791 24.9028C27.0313 24.4085 27.1358 20.5221 27.0743 13.7565C27.0497 11.0008 27.0313 8.25742 27.0313 7.68281C27.0313 7.01551 26.9882 6.58918 26.9021 6.52739C26.8221 6.49032 26.7421 6.51503 26.7175 6.583C26.6622 6.78072 26.4653 6.756 26.4653 6.54593C26.4653 6.40999 26.2808 6.37292 25.4873 6.37292C23.9125 6.37292 24.0294 5.98984 24.0417 11.3035C24.054 13.7565 24.0848 16.4566 24.1217 17.2845C24.1771 18.3781 24.1586 18.8168 24.0663 18.8168C23.8572 18.8168 23.9187 19.2555 24.1463 19.3791C24.2816 19.4718 24.3062 19.5274 24.2017 19.5892C24.1217 19.6571 24.054 20.2256 24.0294 21.2574C23.9925 22.592 23.9618 22.87 23.7895 23.043C23.5927 23.2408 23.5742 23.2408 23.4327 23.043C23.2605 22.8268 22.7807 22.7897 22.4362 22.9751C22.0918 23.1481 21.735 22.8144 21.8273 22.4005C21.9072 22.0545 21.9626 12.4898 21.9072 9.02358L21.8642 6.65096L21.3721 6.38528C21.0399 6.19992 20.8 6.13195 20.6585 6.19992C20.4432 6.2926 19.6743 6.2926 19.3421 6.18756C19.2376 6.18756 19.0961 6.23081 19.0161 6.32349ZM29.2396 6.31113C29.1104 6.48414 29.0673 10.6671 29.1965 11.2294C29.2519 11.4456 29.2519 11.9894 29.2211 12.4404C29.1781 12.8914 29.1842 13.3054 29.2457 13.3857C29.3934 13.5711 29.2457 13.9974 29.0366 13.9974C28.9443 13.9974 28.9013 14.053 28.932 14.1148C28.9689 14.1828 28.9197 14.3125 28.8274 14.4114C28.6183 14.6215 28.5629 16.2341 28.7598 16.3577C28.8274 16.3948 28.8767 16.5307 28.8767 16.6481C28.8767 16.7655 28.932 16.8767 29.0058 16.9014C29.1104 16.9385 29.1412 17.9703 29.1412 20.6828C29.1289 22.8515 29.1781 24.4827 29.2457 24.5692C29.3011 24.6372 29.3011 24.7298 29.258 24.7546C29.2027 24.7916 29.1781 25.0326 29.2027 25.2859L29.2457 25.7555L32.3091 25.7184C36.8733 25.6814 36.6088 26.0088 36.6211 20.3368C36.6211 16.5245 36.6088 16.3515 36.3935 16.1167C35.7046 15.3691 35.6246 15.227 35.8092 15.1281C36.2705 14.8748 36.3812 14.3434 36.4058 12.6134C36.4181 11.6928 36.4428 10.0184 36.4612 8.89383C36.4981 6.9599 36.4858 6.83015 36.2521 6.61389C35.8953 6.25553 35.3601 6.18756 32.2476 6.1752C30.0762 6.1752 29.3318 6.19992 29.2396 6.31113ZM33.5332 8.94326C33.6009 9.06066 33.6009 9.93185 33.5332 13.3116C33.5209 14.1519 33.4655 14.2013 32.6043 14.0592L32.1122 13.9913L32.0446 12.9903C32.0077 12.4342 31.9769 11.909 31.9646 11.8164C31.9646 11.7237 32.0015 11.0069 32.0446 10.2284L32.1245 8.81969H32.7889C33.1518 8.81351 33.484 8.86912 33.5332 8.94326ZM33.484 17.0435C33.527 17.1115 33.5762 18.0012 33.5762 19.0145C33.5762 20.0278 33.5885 21.3315 33.5885 21.9185C33.6009 22.4931 33.5762 23.0245 33.5332 23.0801C33.4409 23.2284 32.2476 23.1728 32.0507 22.9998C31.9215 22.8948 31.9031 22.7588 31.9708 22.4437C32.0261 22.2151 32.0753 20.9114 32.0753 19.5397C32.0753 17.3957 32.0999 17.0374 32.2599 16.9261C32.4752 16.7655 33.361 16.8458 33.484 17.0435Z" fill="#f1a900"/>
</svg>
