<svg width="39" height="32" viewBox="0 0 39 32" fill="none" xmlns="http://www.w3.org/2000/svg">
<path d="M39 15.3999V0.248537C39 0.0156219 38.7036 -0.0909661 38.5573 0.0945765L21.9881 20.7806C21.9588 20.817 21.9404 20.861 21.935 20.9074C21.9297 20.9538 21.9376 21.0008 21.9579 21.0429C21.9781 21.085 22.0099 21.1206 22.0495 21.1454C22.0892 21.1702 22.135 21.1834 22.1818 21.1833H34.1541C34.4783 21.1833 34.7826 21.0372 34.9842 20.7845L38.7668 16.0631C38.917 15.8736 39 15.6407 39 15.3999ZM0.233202 16.0631L12.6798 31.6013C12.8814 31.8539 13.1858 32 13.5099 32H25.4822C25.6917 32 25.8063 31.7592 25.6759 31.5973L0.442688 0.0945765C0.296443 -0.0870184 0 0.0156219 0 0.248537V15.3999C0 15.6407 0.0830039 15.8736 0.233202 16.0631Z" fill="white"/>
</svg>
